<svg width="16" height="16" viewBox="0 0 16 16" fill="none" xmlns="http://www.w3.org/2000/svg">
<path d="M12.8767 2.59686C12.3153 1.32283 10.7111 0.942422 9.63875 1.78345C8.75572 0.695047 7.111 0.761547 6.29881 1.85314C4.92622 0.84336 2.94531 1.81945 2.94531 3.53573V3.85067C1.58122 3.25995 0 4.24555 0 5.76786V7.6218C0 8.60239 0.425875 9.53774 1.16841 10.188L4.33091 12.9576C4.59559 13.1894 4.53125 13.4309 4.53125 14.25C4.53125 14.6642 4.86703 15 5.28125 15H13.4375C13.8517 15 14.1875 14.6642 14.1875 14.25C14.1875 13.4755 14.1519 13.1949 14.3402 12.7542L15.7266 9.51017C15.908 9.0857 16 8.6368 16 8.17599V4.45064C16 2.83533 14.2641 1.84048 12.8767 2.59686ZM4.98969 12.2053L1.82719 9.4357C1.3015 8.97533 1 8.3142 1 7.6218V5.76786C1 5.1577 1.51022 4.66655 2.1285 4.67874C2.72966 4.68861 3.21875 5.18708 3.21875 5.78989V7.13195C3.21875 7.20402 3.24984 7.27258 3.30403 7.32005L3.53059 7.51845C3.56673 7.55011 3.61122 7.57068 3.65875 7.5777C3.70627 7.58473 3.75481 7.57791 3.79856 7.55807C3.84231 7.53824 3.87942 7.50621 3.90545 7.46583C3.93147 7.42545 3.94531 7.37843 3.94531 7.33039V3.53573C3.94531 2.1218 6.16406 2.05411 6.16406 3.5578V4.42858C6.16406 4.49488 6.1904 4.55847 6.23729 4.60536C6.28417 4.65224 6.34776 4.67858 6.41406 4.67858H6.64062C6.70693 4.67858 6.77052 4.65224 6.8174 4.60536C6.86429 4.55847 6.89062 4.49488 6.89062 4.42858V3.0893C6.89062 1.67586 9.10938 1.60714 9.10938 3.11133V4.42855C9.10938 4.49485 9.13571 4.55844 9.1826 4.60532C9.22948 4.65221 9.29307 4.67855 9.35938 4.67855H9.58594C9.65224 4.67855 9.71583 4.65221 9.76271 4.60532C9.8096 4.55844 9.83594 4.49485 9.83594 4.42855V3.42408C9.83594 1.98645 12.0547 1.97083 12.0547 3.44611V4.42855C12.0547 4.49485 12.081 4.55844 12.1279 4.60532C12.1748 4.65221 12.2384 4.67855 12.3047 4.67855H12.5312C12.5976 4.67855 12.6611 4.65221 12.708 4.60532C12.7549 4.55844 12.7812 4.49485 12.7812 4.42855C12.7812 3.01473 15 2.94642 15 4.45061V8.17595C15.0003 8.49954 14.9346 8.81979 14.8071 9.11717L13.4207 12.3612C13.1526 12.9885 13.1875 13.4354 13.1875 14H5.53125C5.53125 13.4037 5.62081 12.758 4.98969 12.2053Z" fill="#55596D"/>
</svg>
