<svg width="16" height="16" viewBox="0 0 16 16" fill="none" xmlns="http://www.w3.org/2000/svg">
<path d="M7.99988 0C7.93863 0 7.87707 0.000937482 7.8152 0.00281245C4.53151 0.101248 2 2.96619 2 6.25144V14.4988C2 14.8 2.24656 14.9997 2.50374 14.9997C2.62655 14.9997 2.75186 14.9541 2.85373 14.8522L3.63247 14.2732C3.72184 14.2069 3.82653 14.1744 3.93059 14.1744C4.06902 14.1744 4.20621 14.2316 4.30464 14.3425L5.6468 15.8534C5.7443 15.9509 5.87242 16 6.00023 16C6.12804 16 6.25617 15.9513 6.35366 15.8534L7.62614 14.4207C7.72551 14.3088 7.8627 14.2525 7.99988 14.2525C8.13707 14.2525 8.27425 14.3085 8.37363 14.4207L9.6461 15.8534C9.7436 15.9509 9.87172 16 9.99953 16C10.1273 16 10.2555 15.9513 10.353 15.8534L11.6951 14.3425C11.7781 14.2489 11.8933 14.1899 12.0177 14.177C12.1422 14.1642 12.2669 14.1985 12.3673 14.2732L13.146 14.8522C13.2479 14.9541 13.3732 14.9997 13.496 14.9997C13.7529 14.9997 13.9998 14.8 13.9998 14.4988V5.99988C13.9998 2.6862 11.3136 0 7.99988 0ZM12.9998 13.4972L12.9645 13.471C12.7039 13.2769 12.3945 13.1747 12.0695 13.1747C11.6411 13.1747 11.2323 13.3585 10.948 13.6785L9.99984 14.7456L9.12142 13.7566C8.83705 13.4363 8.42831 13.2529 7.99988 13.2529C7.57145 13.2529 7.16271 13.4366 6.87834 13.7566L5.99992 14.7456L5.05182 13.6785C4.91104 13.5201 4.73832 13.3933 4.54501 13.3065C4.3517 13.2196 4.14219 13.1748 3.93027 13.1747C3.60559 13.1747 3.29622 13.2772 3.0356 13.471L2.99998 13.4972V6.25144C2.99998 3.43743 5.17369 1.08248 7.8452 1.00248L7.99988 0.99998C10.7567 0.99998 12.9998 3.24306 12.9998 5.99988V13.4972ZM5.99992 4.9999C5.44775 4.9999 4.99994 5.44771 4.99994 5.99988C4.99994 6.55206 5.44775 6.99986 5.99992 6.99986C6.5521 6.99986 6.9999 6.55206 6.9999 5.99988C6.9999 5.44771 6.5521 4.9999 5.99992 4.9999ZM9.99984 4.9999C9.44767 4.9999 8.99986 5.44771 8.99986 5.99988C8.99986 6.55206 9.44767 6.99986 9.99984 6.99986C10.552 6.99986 10.9998 6.55206 10.9998 5.99988C10.9998 5.44771 10.552 4.9999 9.99984 4.9999Z" fill="#55596D"/>
</svg>
