<svg width="16" height="16" viewBox="0 0 16 16" fill="none" xmlns="http://www.w3.org/2000/svg">
<path d="M15.8729 13.1675L8.67299 1.96759C8.52575 1.7386 8.27225 1.6001 8 1.6001C7.72775 1.6001 7.47426 1.7386 7.32701 1.96759L0.127077 13.1675C0.0493791 13.2883 0.0056604 13.4279 0.000513586 13.5715C-0.00463323 13.7151 0.0289818 13.8574 0.0978276 13.9835C0.166706 14.1096 0.268259 14.2148 0.391824 14.288C0.515389 14.3613 0.656407 14.4 0.800071 14.4H15.1999C15.4927 14.4 15.7619 14.2402 15.9022 13.9832C15.971 13.8572 16.0046 13.7149 15.9995 13.5713C15.9943 13.4278 15.9506 13.2883 15.8729 13.1675ZM8 2.40009L10.5715 6.40005H7.8345L6.40002 7.83454L5.24653 6.6833L8 2.40009ZM0.800071 13.6L4.80478 7.37029L6.40002 8.96553L8.1655 7.20004H11.0855L15.1999 13.6H0.800071Z" fill="#55596D"/>
</svg>
