<svg width="16" height="16" viewBox="0 0 16 16" fill="none" xmlns="http://www.w3.org/2000/svg">
<path d="M8.33317 6.93992L10.9998 4.27325L10.0598 3.33325L8.33317 5.05992V2.66659H6.99984V5.05992L5.27317 3.33325L4.33317 4.27325L6.99984 6.93992V7.99992H5.93984L3.27317 5.33325L2.33317 6.27325L4.05984 7.99992H1.6665V9.33325H4.05984L2.33317 11.0599L3.27317 11.9999L5.93984 9.33325H6.99984V10.3933L4.33317 13.0599L5.27317 13.9999L6.99984 12.2733V14.6666H8.33317V12.2733L10.0598 13.9999L10.9998 13.0599L8.33317 10.3933V9.33325H9.39317L12.0598 11.9999L12.9998 11.0599L11.2732 9.33325H13.6665V7.99992H8.33317V6.93992Z" fill="#55596D"/>
<path d="M14.3332 1.33325H12.9998V4.66659H14.3332V1.33325Z" fill="#55596D"/>
<path d="M14.3332 5.33325H12.9998V6.66659H14.3332V5.33325Z" fill="#55596D"/>
</svg>
