<svg width="16" height="16" viewBox="0 0 16 16" fill="none" xmlns="http://www.w3.org/2000/svg">
<path d="M8.00016 1.33325C4.32016 1.33325 1.3335 4.31992 1.3335 7.99992C1.3335 11.6799 4.32016 14.6666 8.00016 14.6666C11.6802 14.6666 14.6668 11.6799 14.6668 7.99992C14.6668 4.31992 11.6802 1.33325 8.00016 1.33325ZM2.66683 7.99992C2.66683 7.59325 2.72016 7.19325 2.80683 6.81325L5.9935 9.99992V10.6666C5.9935 11.3999 6.5935 11.9999 7.32683 11.9999V13.2866C4.70683 12.9533 2.66683 10.7133 2.66683 7.99992ZM11.9268 11.5999C11.7535 11.0599 11.2602 10.6666 10.6602 10.6666H9.9935V8.66659C9.9935 8.29992 9.6935 7.99992 9.32683 7.99992H5.32683V6.66659H6.66016C7.02683 6.66659 7.32683 6.36659 7.32683 5.99992V4.66659H8.66016C9.3935 4.66659 9.9935 4.06659 9.9935 3.33325V3.05992C11.9468 3.84659 13.3335 5.76659 13.3335 7.99992C13.3335 9.38659 12.7935 10.6533 11.9268 11.5999Z" fill="#55596D"/>
</svg>
