<svg width="16" height="16" viewBox="0 0 16 16" fill="none" xmlns="http://www.w3.org/2000/svg">
<path d="M9.25002 5.00003C9.66377 5.00003 10 4.66378 10 4.25003C10 3.83627 9.66377 3.50002 9.25002 3.50002C8.83626 3.50002 8.50001 3.83627 8.50001 4.25003C8.50001 4.66378 8.83626 5.00003 9.25002 5.00003ZM6.75 5.00003C7.16375 5.00003 7.50001 4.66378 7.50001 4.25003C7.50001 3.83627 7.16375 3.50002 6.75 3.50002C6.33625 3.50002 6 3.83627 6 4.25003C6 4.66378 6.33625 5.00003 6.75 5.00003ZM5.21968 7.12286L5.01936 8.06786C4.91905 8.5413 5.22249 8.99974 5.63593 8.99974H10.3641C10.7775 8.99974 11.081 8.5413 10.9807 8.06786L10.7803 7.12286C11.8203 6.39035 12.5 5.27097 12.5 4.00003C12.5 1.79095 10.4853 0 8.00001 0C5.51468 0 3.49998 1.79095 3.49998 4.00003C3.49998 5.27097 4.17967 6.39035 5.21968 7.12286ZM8.00001 1.00001C9.93002 1.00001 11.5 2.34564 11.5 4.00003C11.5 4.88503 11.0278 5.72535 10.2044 6.30535L9.66533 6.68504L9.8019 7.33005L9.94377 7.99974H6.05593L6.19781 7.33005L6.33437 6.68504L5.79531 6.30535C4.97218 5.72535 4.49999 4.88503 4.49999 4.00003C4.49999 2.34564 6.07 1.00001 8.00001 1.00001ZM9.41002 13.0001L14.8485 10.9394C14.9754 10.8851 15.0341 10.7379 14.9797 10.611L14.7826 10.1513C14.7696 10.1211 14.7509 10.0938 14.7274 10.0709C14.7039 10.048 14.6761 10.0299 14.6457 10.0177C14.6152 10.0055 14.5826 9.99947 14.5498 9.99987C14.517 10.0003 14.4846 10.0071 14.4544 10.0201L8.00001 12.466L1.5459 10.0204C1.51574 10.0074 1.48333 10.0006 1.45051 10.0002C1.4177 9.99978 1.38513 10.0058 1.35466 10.018C1.32419 10.0302 1.29641 10.0483 1.27293 10.0712C1.24944 10.0941 1.2307 10.1215 1.21778 10.1516L1.02059 10.6113C0.966214 10.7382 1.02496 10.8854 1.15184 10.9398L6.59 13.0001L1.15153 15.0607C1.02465 15.1151 0.965901 15.2623 1.02028 15.3892L1.21747 15.8485C1.23039 15.8787 1.24913 15.906 1.27262 15.9289C1.2961 15.9519 1.32387 15.9699 1.35434 15.9821C1.38481 15.9943 1.41739 16.0004 1.4502 16C1.48302 15.9996 1.51543 15.9927 1.54559 15.9798L8.00001 13.5341L14.4541 15.9798C14.4843 15.9927 14.5167 15.9996 14.5495 16C14.5823 16.0004 14.6149 15.9943 14.6454 15.9821C14.6758 15.9699 14.7036 15.9519 14.7271 15.9289C14.7506 15.906 14.7693 15.8787 14.7822 15.8485L14.9794 15.3892C15.0338 15.2623 14.9751 15.1151 14.8482 15.0607L9.41002 13.0001Z" fill="#55596D"/>
</svg>
