<svg width="16" height="16" viewBox="0 0 16 16" fill="none" xmlns="http://www.w3.org/2000/svg">
<path d="M7.99984 1.33325C4.4465 4.36659 2.6665 6.98659 2.6665 9.19992C2.6665 12.5199 5.19984 14.6666 7.99984 14.6666C10.7998 14.6666 13.3332 12.5199 13.3332 9.19992C13.3332 6.98659 11.5532 4.36659 7.99984 1.33325ZM7.99984 13.3333C5.7665 13.3333 3.99984 11.6199 3.99984 9.19992C3.99984 7.63992 5.29984 5.57325 7.99984 3.10659C10.6998 5.57325 11.9998 7.63325 11.9998 9.19992C11.9998 11.6199 10.2332 13.3333 7.99984 13.3333ZM5.21984 9.33325C5.4665 9.33325 5.6665 9.50659 5.71317 9.74659C5.9865 11.2266 7.23317 11.7333 8.13984 11.6599C8.4265 11.6466 8.6665 11.8733 8.6665 12.1599C8.6665 12.4266 8.45317 12.6466 8.1865 12.6599C6.7665 12.7466 5.1065 11.9333 4.7265 9.91325C4.67317 9.61325 4.91317 9.33325 5.21984 9.33325Z" fill="#55596D"/>
</svg>
